# xmcd
#
# Track frame offsets:
#	150
#	13500
#	30825
#	49350
#	68400
#	84825
#	99750
#	117000
#	128175
#	142650
#	161477
#	175725
#	193200
#	210150
#	221200
#	236325
#	237825
#	239550
#	241825
#	246632
#	249097
#	253305
#	255032
#	258675
#	261260
#	264325
#	266277
#	269887
#	273092
#	275645
#	291307
#
# Disc length: 3923 seconds
#
# Revision: 1
# Processed by: cddbd v1.5.2PL0 Copyright (c) Steve Scherf et al.
# Submitted via: audiograbber 1.83.01
#
DISCID=b50f511f
DTITLE=Various Artist - CDX 53 March 1993
DYEAR=1993
DGENRE=Country
TTITLE0=Randy Travis - An Old Pair Of Shoes
TTITLE1=Guy Clark - Boats To Build
TTITLE2=Pearl River - Fool To Fall
TTITLE3=Lorrie Morgan - I Guess You Had To Be There
TTITLE4=Billy Dean - I Wanna Take Care Of You
TTITLE5=Deborah Allen - If You're Not Gonna Love Me
TTITLE6=Marty Brown - It Must Be The Rain
TTITLE7=Lucinda Williams - Lines Around Your Eyes
TTITLE8=Tim Ryan - Love On The Rocks
TTITLE9=Vince Gill - No Future In The Past
TTITLE10=Collin Raye - Somebody Else's Moon
TTITLE11=Wynonna - Tell Me Why
TTITLE12=Confederate Railroad - When You Leave That Way, You Can Never Go Back
TTITLE13=David Grey - 1-900 2 Lonely
TTITLE14=Jason D. Williams - Wild
TTITLE15=Willie Nelson - PSA
TTITLE16=Ricky Van Shelton - PSA
TTITLE17=The Kentucky Headhunters - Interview
TTITLE18=The Kentucky Headhunters - Interview
TTITLE19=The Kentucky Headhunters - Interview
TTITLE20=The Kentucky Headhunters - Interview
TTITLE21=The Kentucky Headhunters - Interview
TTITLE22=The Kentucky Headhunters - Interview
TTITLE23=The Kentucky Headhunters - Interview
TTITLE24=The Kentucky Headhunters - Interview
TTITLE25=The Kentucky Headhunters - Interview
TTITLE26=The Kentucky Headhunters - Interview
TTITLE27=The Kentucky Headhunters - Interview
TTITLE28=The Kentucky Headhunters - Interview
TTITLE29=The Kentucky Headhunters - Interview
TTITLE30=The Kentucky Headhunters - Interview
EXTD=
EXTT0=
EXTT1=
EXTT2=
EXTT3=
EXTT4=
EXTT5=
EXTT6=
EXTT7=
EXTT8=
EXTT9=
EXTT10=
EXTT11=
EXTT12=
EXTT13=
EXTT14=
EXTT15=
EXTT16=
EXTT17=
EXTT18=
EXTT19=
EXTT20=
EXTT21=
EXTT22=
EXTT23=
EXTT24=
EXTT25=
EXTT26=
EXTT27=
EXTT28=
EXTT29=
EXTT30=
PLAYORDER=
